<svg width="1509" height="289" viewBox="0 0 1509 289" fill="#55e6a5" xmlns="http://www.w3.org/2000/svg">
<path d="M0.692383 6.31543H51.6201C85.5719 6.31543 108.529 7.62565 120.492 10.2461C132.569 12.8665 142.367 19.5885 149.887 30.4121C157.52 41.1217 161.337 58.2686 161.337 81.8525C161.337 103.386 158.66 117.855 153.305 125.261C147.95 132.666 137.411 137.11 121.688 138.591C135.93 142.123 145.5 146.851 150.399 152.775C155.299 158.7 158.318 164.169 159.457 169.182C160.71 174.081 161.337 187.696 161.337 210.026V283H94.5156V191.057C94.5156 176.245 93.3193 167.074 90.9268 163.542C88.6481 160.01 82.5527 158.244 72.6406 158.244V283H0.692383V6.31543ZM72.6406 53.6543V115.178C80.7298 115.178 86.3695 114.095 89.5596 111.931C92.8636 109.652 94.5156 102.417 94.5156 90.2266V75.0166C94.5156 66.2438 92.9206 60.4902 89.7305 57.7559C86.6543 55.0215 80.9577 53.6543 72.6406 53.6543ZM261.312 6.31543V283H189.364V6.31543H261.312ZM414.438 6.31543L455.624 283H381.967L378.378 233.269H352.572L348.3 283H273.788L310.36 6.31543H414.438ZM376.327 184.221C372.681 152.889 369.035 114.209 365.39 68.1807C358.098 121.045 353.541 159.725 351.718 184.221H376.327ZM564.828 6.31543V191.228C564.828 218.913 564.543 236.743 563.974 244.719C563.404 252.58 560.784 259.701 556.112 266.081C551.555 272.461 545.289 276.905 537.313 279.411C529.452 281.804 517.546 283 501.596 283H465.536V234.636C469.866 234.978 472.999 235.148 474.936 235.148C480.062 235.148 484.107 233.895 487.069 231.389C490.032 228.882 491.741 225.806 492.196 222.16C492.652 218.514 492.88 211.451 492.88 200.969V6.31543H564.828ZM756.234 6.31543V191.228C756.234 212.191 755.551 226.945 754.184 235.49C752.816 243.921 748.772 252.637 742.05 261.638C735.328 270.524 726.441 277.303 715.39 281.975C704.452 286.532 691.521 288.811 676.596 288.811C660.076 288.811 645.492 286.076 632.846 280.607C620.199 275.139 610.743 268.018 604.477 259.245C598.21 250.472 594.507 241.244 593.368 231.56C592.229 221.761 591.659 201.254 591.659 170.036V6.31543H663.607V213.786C663.607 225.863 664.234 233.61 665.487 237.028C666.854 240.332 669.532 241.984 673.52 241.984C678.077 241.984 680.982 240.161 682.235 236.516C683.603 232.756 684.286 223.983 684.286 210.197V6.31543H756.234ZM856.039 6.31543V227.629H899.789V283H784.091V6.31543H856.039ZM979.257 6.31543H1051.72C1071.31 6.31543 1086.35 7.85352 1096.83 10.9297C1107.43 14.0059 1115.35 18.4492 1120.59 24.2598C1125.94 30.0703 1129.53 37.1341 1131.36 45.4512C1133.29 53.6543 1134.26 66.4147 1134.26 83.7324V107.829C1134.26 125.489 1132.44 138.363 1128.79 146.452C1125.15 154.541 1118.43 160.751 1108.63 165.08C1098.94 169.41 1086.24 171.574 1070.52 171.574H1051.21V283H979.257V6.31543ZM1051.21 53.6543V124.064C1053.26 124.178 1055.02 124.235 1056.5 124.235C1063.11 124.235 1067.67 122.64 1070.17 119.45C1072.8 116.146 1074.11 109.367 1074.11 99.1133V76.3838C1074.11 66.9274 1072.62 60.7751 1069.66 57.9268C1066.7 55.0785 1060.55 53.6543 1051.21 53.6543ZM1154.94 6.31543H1205.87C1239.82 6.31543 1262.78 7.62565 1274.74 10.2461C1286.82 12.8665 1296.62 19.5885 1304.13 30.4121C1311.77 41.1217 1315.58 58.2686 1315.58 81.8525C1315.58 103.386 1312.91 117.855 1307.55 125.261C1302.2 132.666 1291.66 137.11 1275.94 138.591C1290.18 142.123 1299.75 146.851 1304.65 152.775C1309.55 158.7 1312.57 164.169 1313.71 169.182C1314.96 174.081 1315.58 187.696 1315.58 210.026V283H1248.76V191.057C1248.76 176.245 1247.57 167.074 1245.17 163.542C1242.9 160.01 1236.8 158.244 1226.89 158.244V283H1154.94V6.31543ZM1226.89 53.6543V115.178C1234.98 115.178 1240.62 114.095 1243.81 111.931C1247.11 109.652 1248.76 102.417 1248.76 90.2266V75.0166C1248.76 66.2438 1247.17 60.4902 1243.98 57.7559C1240.9 55.0215 1235.21 53.6543 1226.89 53.6543ZM1508.02 168.327C1508.02 196.127 1507.33 215.837 1505.97 227.458C1504.71 238.965 1500.61 249.504 1493.66 259.074C1486.83 268.645 1477.54 275.993 1465.8 281.12C1454.07 286.247 1440.4 288.811 1424.79 288.811C1409.98 288.811 1396.65 286.418 1384.8 281.633C1373.06 276.734 1363.61 269.442 1356.43 259.758C1349.25 250.074 1344.98 239.535 1343.61 228.142C1342.25 216.748 1341.56 196.81 1341.56 168.327V120.988C1341.56 93.1888 1342.19 73.5355 1343.44 62.0283C1344.81 50.4072 1348.91 39.8115 1355.75 30.2412C1362.7 20.6709 1372.04 13.3223 1383.77 8.19531C1395.51 3.06836 1409.18 0.504883 1424.79 0.504883C1439.6 0.504883 1452.87 2.95443 1464.61 7.85352C1476.46 12.6387 1485.97 19.8734 1493.15 29.5576C1500.33 39.2419 1504.6 49.7806 1505.97 61.1738C1507.33 72.5671 1508.02 92.5052 1508.02 120.988V168.327ZM1436.07 77.4092C1436.07 64.5348 1435.33 56.3317 1433.85 52.7998C1432.48 49.154 1429.57 47.3311 1425.13 47.3311C1421.37 47.3311 1418.47 48.8122 1416.42 51.7744C1414.48 54.6227 1413.51 63.1676 1413.51 77.4092V206.608C1413.51 222.673 1414.14 232.585 1415.39 236.345C1416.76 240.104 1419.83 241.984 1424.62 241.984C1429.52 241.984 1432.65 239.82 1434.02 235.49C1435.38 231.161 1436.07 220.85 1436.07 204.558V77.4092Z" fill="#55e6a5"/>
</svg>
