<svg width="100" height="100" viewBox="0 0 100 100" fill="none" xmlns="http://www.w3.org/2000/svg">
<rect width="100" height="100" rx="50" fill="black"/>
<mask id="path-2-outside-1_6_2" maskUnits="userSpaceOnUse" x="8" y="17.45" width="79" height="64" fill="black">
<rect fill="white" x="8" y="17.45" width="79" height="64"/>
<path d="M45.7 49.2C45.2333 49.2 44.8667 49.1333 44.6 49C44 48.7333 43.7 48.6 43.7 48.6C43.7 48.5333 44 48.3 44.6 47.9C45.0667 47.6333 45.6 47.5333 46.2 47.6C46.8667 47.6667 47.3333 47.6667 47.6 47.6C49.2 47.2667 51.1333 46.8 53.4 46.2C55.6667 45.6 58.3 44.4 61.3 42.6L65.2 40.3C65.5333 40.1 65.7667 40.1333 65.9 40.4C65.7667 40.4667 65.7 40.6333 65.7 40.9C66.1667 40.9 66.4333 40.7333 66.5 40.4C66.6333 40 66.7667 39.6333 66.9 39.3H67L69.2 37.9C69.5333 37.8333 69.8333 37.8667 70.1 38C70.4333 38.1333 70.7333 38.1 71 37.9C70.8667 37.6333 70.7333 37.4667 70.6 37.4C70.4667 37.2667 70.5333 37.1 70.8 36.9L71.2 36.6C71.7333 36.2667 72.2 36.0333 72.6 35.9C73.0667 35.7 73.4 35.3333 73.6 34.8C74.9333 33.6 76.0667 32.4 77 31.2C77.9333 30 78.4 28.8667 78.4 27.8C78.4 26.6667 77.7667 25.7 76.5 24.9C75.3 24.0333 73.1333 23.4 70 23L69.2 22.9C68.7333 22.8333 68.3 22.7667 67.9 22.7C67.5 22.6333 67.1 22.5 66.7 22.3C66.7667 22.5667 66.6333 22.7 66.3 22.7C65.3667 22.6333 64.4333 22.6 63.5 22.6C62.5667 22.5333 61.6667 22.5 60.8 22.5C59.3333 22.5 57.9667 22.5333 56.7 22.6C55.5 22.6667 54.6333 22.7333 54.1 22.8L50.8 23.2C50.4 23.0667 50 23.1333 49.6 23.4H49.5C49.0333 23.4 48.5667 23.4667 48.1 23.6C47.6333 23.6667 47.1333 23.7667 46.6 23.9C46.3333 23.9667 46.0333 24.0333 45.7 24.1C45.3667 24.1 45.0333 24.1667 44.7 24.3L42.7 24.7C42.2333 25.0333 41.6333 25.2 40.9 25.2H40.8L38.9 25.7H38.8C38.5333 25.7 38.3 25.5667 38.1 25.3C37.9 24.9667 37.7667 24.6667 37.7 24.4C37.6333 24.8 37.5333 25.2333 37.4 25.7C37.2667 26.1667 37.0333 26.4 36.7 26.4L33.9 27.3C33.6333 27.3667 33.3333 27.4 33 27.4C32.6667 27.4 32.3333 27.4 32 27.4C31.6667 27.4 31.4 27.4333 31.2 27.5C31 27.5667 30.8667 27.7333 30.8 28C30.8 28.2 30.7 28.3667 30.5 28.5C30.2333 28.7667 29.9 28.9667 29.5 29.1C29.1 29.1667 28.7333 29.2667 28.4 29.4H28.3C28.1667 29.4 27.9667 29.3333 27.7 29.2C27.5 29.0667 27.3333 29.0333 27.2 29.1C27.1333 29.1667 27.0667 29.3333 27 29.6C26.9333 29.8667 26.8333 30.0333 26.7 30.1V30.2C26.3 30.3333 25.8667 30.5 25.4 30.7C24.9333 30.9 24.5 31.1 24.1 31.3C23.7 31.5 23.2333 31.7333 22.7 32C22.2333 32.2 21.8333 32.3333 21.5 32.4C21.3667 32.4 21.3 32.2667 21.3 32C21.3667 31.7333 21.3333 31.6667 21.2 31.8C20.8 32 20.4 32.3667 20 32.9C19.6 33.4333 19.2333 33.8 18.9 34C18.5667 34.2667 18.2 34.4 17.8 34.4C17.4667 34.4 17.1333 34.5333 16.8 34.8C16.6 35 16.4 35.3333 16.2 35.8C16.0667 36.2 15.9 36.5 15.7 36.7C15.1667 37.2333 14.6333 37.8667 14.1 38.6C14.0333 38.7333 13.9333 38.8667 13.8 39C13.6667 39.1333 13.6 39.3 13.6 39.5H13.5C13.1 40.3 12.9 41.0667 12.9 41.8C12.9 43.2667 13.4333 44.3333 14.5 45C15.6333 45.6667 16.9 46.1667 18.3 46.5C18.5667 46.5667 18.8 46.6667 19 46.8C19.2667 46.9333 19.5333 46.9667 19.8 46.9C20.0667 46.7667 20.3 46.7 20.5 46.7C20.8333 46.7 21.1 46.8333 21.3 47.1L22.8 47.4C23.6 47.6 24 47.8 24 48C24 48.1333 23.8 48.2667 23.4 48.4C23.0667 48.4667 22.7333 48.5 22.4 48.5C21.2 48.5 19.7333 48.2667 18 47.8C16.2667 47.2667 14.7 46.5 13.3 45.5C11.9 44.5 11.1 43.2 10.9 41.6C10.9 41.5333 10.8 41.3667 10.6 41.1C10.4667 40.8333 10.3667 40.6 10.3 40.4C10.1 39.8 10 39.2 10 38.6C10 37.4667 10.2333 36.4 10.7 35.4C11.2333 34.4 11.9333 33.4667 12.8 32.6C13.1333 32.2667 13.4333 32.0333 13.7 31.9C14.0333 31.7667 14.4 31.5667 14.8 31.3C15.2 31.0333 15.4 30.8 15.4 30.6C15.4 30.4 15.6 30.1667 16 29.9C16.5333 29.5667 17.2667 29.1667 18.2 28.7C19.2 28.2333 19.9667 27.8667 20.5 27.6C20.9 27.6 21.2667 27.4333 21.6 27.1C22.9333 26.5 24.3333 25.9667 25.8 25.5C27.2667 24.9667 28.7333 24.4667 30.2 24C30.4667 23.9333 30.7 23.8667 30.9 23.8C31.1 23.7333 31.3 23.7 31.5 23.7C31.7667 23.7 32.0333 23.8 32.3 24C32.3 23.8667 32.2667 23.7667 32.2 23.7C32.2 23.5667 32.2667 23.4667 32.4 23.4C34.0667 22.8667 35.7 22.3667 37.3 21.9C38.9667 21.3667 40.6 21.1 42.2 21.1H42.3C42.4333 21.1 42.5667 21.0667 42.7 21C42.9 20.9333 43.0667 20.9 43.2 20.9H43.3L44 20.8C44.4 21 44.8 20.9333 45.2 20.6C47 20.2667 48.6667 20.0333 50.2 19.9C51.7333 19.7 53.0333 19.6 54.1 19.6H54.5C54.8333 19.6 55.1 19.5667 55.3 19.5H56.3C56.5 19.4333 56.7 19.4333 56.9 19.5C57.1667 19.5 57.3667 19.5 57.5 19.5H57.6C58.4 19.5 59.2333 19.5333 60.1 19.6C61.0333 19.6 61.9667 19.6 62.9 19.6H63C63.2667 19.6 63.4667 19.7 63.6 19.9C63.8 20.0333 64.0333 19.9667 64.3 19.7C66.1 19.7667 67.9 19.9667 69.7 20.3C71.0333 20.5 72.5667 20.9 74.3 21.5C76.1 22.1 77.6667 23.0333 79 24.3C80.3333 25.5 81 27.2 81 29.4C81 30.4667 80.8667 31.4333 80.6 32.3C80.4 33.1 80 33.8333 79.4 34.5C78.8667 35.1667 78.2333 35.8333 77.5 36.5C77.3 36.7 77.1 36.9333 76.9 37.2C76.7 37.4667 76.4667 37.7 76.2 37.9C76.1333 37.9667 76 38.0333 75.8 38.1C75.6667 38.1 75.5333 38.1333 75.4 38.2C75.2667 38.3333 75.1333 38.4333 75 38.5C74.8667 38.5667 74.7 38.6667 74.5 38.8C72.3 40.2667 70.4 41.3667 68.8 42.1C67.2667 42.7667 65.2333 43.5333 62.7 44.4C61.9 44.6667 61.3333 44.8333 61 44.9C60.6667 44.9 60.4 44.9667 60.2 45.1C58.5333 45.5667 56.6333 46.2333 54.5 47.1C52.3667 47.9667 50.5333 48.5333 49 48.8C48.8667 48.8667 48.4333 48.9667 47.7 49.1C47.0333 49.1667 46.3667 49.2 45.7 49.2ZM75.6 79.1C75.5333 79.1 75.3 79.1 74.9 79.1C74.5 79.1 74.2667 79.0667 74.2 79C73.9333 78.8667 73.8333 78.6667 73.9 78.4C73.9667 78.1333 73.8667 78 73.6 78C73.3333 78 73.1667 78.1 73.1 78.3C73.0333 78.5667 72.8333 78.7 72.5 78.7H72.4C72.0667 78.7 71.7667 78.5333 71.5 78.2C71.3 77.8667 71.0667 77.7667 70.8 77.9C70.4 78.1 70.0667 78.2 69.8 78.2C69.3333 78.2 68.9667 78.0333 68.7 77.7C68.4333 77.3667 68.0667 77.0667 67.6 76.8C67.5333 76.8 67.4 76.8333 67.2 76.9C67.0667 76.9667 66.9333 76.9667 66.8 76.9C66.7333 76.8333 66.2 76.5333 65.2 76C64.2 75.5333 63.2 75.0333 62.2 74.5C61.2 73.9667 60.6 73.6333 60.4 73.5C60.2 73.0333 60 72.7667 59.8 72.7C59.6667 72.6333 59.3667 72.6 58.9 72.6C58.6333 72.4 58.2667 72.1667 57.8 71.9C57.4 71.7 57.1333 71.4333 57 71.1C56.1333 70.7667 55.3667 70.3667 54.7 69.9C54.0333 69.4333 53.3333 68.9 52.6 68.3C52.4667 68.1667 52.3 68.0667 52.1 68C51.9 67.9333 51.7333 67.8333 51.6 67.7L48.9 65.7C48.7667 65.3 48.2667 64.8667 47.4 64.4C46.5333 63.8667 45.9333 63.3667 45.6 62.9C45.5333 62.8333 45.5 62.7667 45.5 62.7C45.5 62.3667 45.3333 62.2 45 62.2C44.8 62.2 44.6 62.2 44.4 62.2C44.2 62.2 44.1 62.0667 44.1 61.8C43.9 61.3333 43.4 60.8 42.6 60.2C41.8 59.5333 41.0667 58.8667 40.4 58.2C39.7333 57.5333 39.5 56.9667 39.7 56.5C39.4333 56.4333 39.1667 56.4 38.9 56.4C38.6333 56.4 38.4333 56.3 38.3 56.1C38.0333 55.5667 37.7 55.1333 37.3 54.8C37.1 54.6667 36.9 54.4667 36.7 54.2L36.2 55.2C35.9333 55.6 35.6667 56.0667 35.4 56.6C35.1333 57.1333 34.8333 57.7 34.5 58.3L33.6 60.1C33.5333 60.3 33.4333 60.4 33.3 60.4C33.2333 60.3333 33.1333 60.3 33 60.3C33.1333 60.5667 33.2 60.8 33.2 61C33.2 61.5333 32.9 62.1 32.3 62.7C31.4333 64.7 30.6333 66.6 29.9 68.4C29.1667 70.2 28.6 71.8667 28.2 73.4C28.0667 73.9333 27.8667 74.2 27.6 74.2C27.1333 74.2 26.9 73.7 26.9 72.7C26.9 71.7667 27.2667 70.3 28 68.3L27.9 68.4C27.8333 68.4 27.6 68.4667 27.2 68.6C26.8 68.7333 26.5333 68.7667 26.4 68.7C25.5333 68.7 25.1 68.4 25.1 67.8C25.1 66.2 25.4333 64.5333 26.1 62.8L28.7 56C28.8333 55.8 28.9 55.6 28.9 55.4C28.9667 55.2 29.0333 55 29.1 54.8L29.2 54.7V54.6L29.6 52.5C29.7333 51.9 29.8 51.3667 29.8 50.9C29.8667 50.4333 29.9 49.8667 29.9 49.2C29.9 49 30 48.8667 30.2 48.8C30.2 48.3333 30.2333 47.9 30.3 47.5C30.3667 47.0333 30.4 46.5667 30.4 46.1V45.6C30.3333 45.5333 30.3 45.4 30.3 45.2C30.3 45.0667 30.2667 44.9333 30.2 44.8C30.2 44.6667 30.2 44.5333 30.2 44.4C30.2 44.3333 30.2 44.3 30.2 44.3C30.2667 44.2333 30.3 44.1667 30.3 44.1C30.4333 43.3 30.6667 42.5667 31 41.9C31.4 41.2333 31.8333 41.0667 32.3 41.4C32.4333 41.4667 32.6667 41.8667 33 42.6C33.4 43.3333 33.7333 43.8667 34 44.2C34.2667 44.8667 34.6 45.5 35 46.1C35.4 46.6333 35.7333 47.2333 36 47.9C36.2 48.2333 36.3 48.5 36.3 48.7C36.3 48.8333 36.5333 48.9667 37 49.1C38.9333 45.6333 40.8667 42.3333 42.8 39.2C44.8 36 46.6667 33.5333 48.4 31.8L48.7 31.6L49 31.1C49 31.1 49.0667 31.0667 49.2 31C49.3333 30.9333 49.4333 30.9667 49.5 31.1C49.5 31.1667 49.4333 31.3 49.3 31.5C49.2333 31.7 49.2 31.8333 49.2 31.9C49.4 32.2333 49.6333 32.2667 49.9 32C49.9667 31.8667 49.9667 31.5667 49.9 31.1C49.8333 30.6333 49.8333 30.4 49.9 30.4C50.0333 30.3333 50.1 30.3333 50.1 30.4C50.1667 30.4667 50.2333 30.5 50.3 30.5C50.4333 30.5 50.5 30.4 50.5 30.2C50.5 30 50.5333 29.8667 50.6 29.8C51.3333 29.5333 52 29.4 52.6 29.4C52.9333 29.4 53.4 29.5667 54 29.9C54.6667 30.2333 55 30.7 55 31.3C55 31.6333 54.8333 32.0333 54.5 32.5C54.4333 32.5667 54.3667 32.7 54.3 32.9C54.2333 33.0333 54.1333 33.1667 54 33.3C53.9333 33.3667 53.8667 33.4 53.8 33.4C53.8 33.3333 53.7333 33.3333 53.6 33.4C53.5333 33.4667 53.4333 33.5 53.3 33.5C53.2333 33.4333 53.1333 33.4 53 33.4C52.8667 33.4 52.8333 33.5 52.9 33.7C53.0333 33.9 53.0667 34.0333 53 34.1C52.9333 34.1667 52.8667 34.1667 52.8 34.1C52.7333 34.0333 52.6333 34.0667 52.5 34.2C52.4333 34.2667 52.4667 34.3333 52.6 34.4C52.8 34.4 52.8333 34.4667 52.7 34.6C52.3 35 51.8 35.4333 51.2 35.9C50.6667 36.3 50.1333 36.7 49.6 37.1C49.5333 37.1667 49.4667 37.1667 49.4 37.1C49.3333 36.9667 49.2667 36.9333 49.2 37L48.5 38C47.8333 38.6667 47.1667 39.3667 46.5 40.1C45.8333 40.8333 45.1333 41.6667 44.4 42.6C44.2 43 43.9667 43.3667 43.7 43.7C43.4333 44.0333 43.0667 44.1667 42.6 44.1C42.6 44.1667 42.6667 44.2667 42.8 44.4C42.9333 44.4667 42.9333 44.6 42.8 44.8C41.3333 46.8 39.9667 48.8667 38.7 51L40.8 53.6C41 53.8667 41.1 54.1667 41.1 54.5C41.1 54.7667 41.1667 54.9333 41.3 55C41.4333 55 41.5333 54.9667 41.6 54.9C41.7333 54.8333 41.8333 54.8 41.9 54.8C42.1 54.8 42.2667 54.9667 42.4 55.3C42.6 55.5667 42.8 55.8 43 56C43.2667 56.2667 43.5333 56.5333 43.8 56.8C44.1333 57.0667 44.4667 57.3667 44.8 57.7V57.8C45.0667 58 45.5 58.3667 46.1 58.9C46.7 59.4333 47.2667 59.9667 47.8 60.5C48.3333 60.9667 48.6333 61.3333 48.7 61.6C48.8333 61.8667 49.0333 62.0333 49.3 62.1C49.5667 62.1667 49.8 62.2667 50 62.4C50.5333 62.8 51.0667 63.2 51.6 63.6C52.2 64 52.7667 64.4333 53.3 64.9C53.5 65.0333 53.5667 65.1667 53.5 65.3C53.5 65.4333 53.5333 65.5667 53.6 65.7C53.7333 65.7667 53.9667 65.8667 54.3 66C54.7 66.0667 55 66.1667 55.2 66.3C56.7333 67.3 58.2667 68.2667 59.8 69.2C61.3333 70.2 62.9333 71.1333 64.6 72C66.3333 72.8667 68.1 73.6333 69.9 74.3C71.7 74.9667 73.6 75.3 75.6 75.3C77.2 75.3 78.7333 75 80.2 74.4C81.7333 73.8 82.5 72.7 82.5 71.1C82.5 70.5667 82.4 70 82.2 69.4C82.1333 69.0667 82 68.7 81.8 68.3C81.6667 67.9 81.4333 67.6 81.1 67.4C80.9 67 80.5333 66.7333 80 66.6C79.6667 66.2667 79.3667 65.9333 79.1 65.6C78.8333 65.2 78.4333 65.0333 77.9 65.1C77.7 64.9 77.6 64.7 77.6 64.5C77.6 64.2333 77.7 64.0333 77.9 63.9C78.1667 63.7 78.4667 63.6667 78.8 63.8C79.2667 64.0667 79.6333 64.4333 79.9 64.9C80.2333 65.3 80.6667 65.5333 81.2 65.6L81.7 66.1C81.9 66.4333 82.1 66.7 82.3 66.9C82.5667 67.1 82.8 67.3667 83 67.7C83.2 67.9667 83.4 68.3333 83.6 68.8C83.8667 69.3333 84.0333 69.7667 84.1 70.1C84.2333 70.3667 84.2667 70.6333 84.2 70.9C84.2 71.1667 84.3 71.4667 84.5 71.8C84.6333 73.8667 83.9667 75.5333 82.5 76.8C81.0333 78.1333 79.3333 78.8667 77.4 79C77.2 78.8667 77 78.7667 76.8 78.7C76.6667 78.6333 76.5333 78.6 76.4 78.6C76.2 78.6 75.9333 78.7667 75.6 79.1ZM29.3 65.1C29.4333 65.1667 29.5 65.1667 29.5 65.1C29.5667 64.9667 29.6 64.9 29.6 64.9C29.7333 64.7 29.8 64.5 29.8 64.3C29.8 64.0333 29.8333 63.8 29.9 63.6C31.1 60.6 32.6333 57.3333 34.5 53.8C34.6333 53.5333 34.7667 53.4667 34.9 53.6C35.1 53.6667 35.2333 53.6333 35.3 53.5C35.4333 53.3667 35.4667 53.2 35.4 53C35.4 52.8 35.4 52.6333 35.4 52.5C35.3333 52.3667 35.2333 52.2667 35.1 52.2C34.9667 52.1333 34.8667 52.0333 34.8 51.9C34.5333 51.1667 34.1667 50.7 33.7 50.5C33.3 50.2333 33 49.8333 32.8 49.3C32.5333 48.7 32.2667 48.2667 32 48C31.8 47.6667 31.5333 47.2667 31.2 46.8L30.9 50.2C30.8333 50.8667 30.7333 51.6333 30.6 52.5C30.5333 53.3667 30.3667 54.1667 30.1 54.9C30.0333 55.1 30 55.4 30 55.8V56.9C30 57.0333 29.9667 57.2 29.9 57.4C29.9 57.6 29.9 57.8 29.9 58L29.7 60C29.6333 60.6667 29.5333 61.3667 29.4 62.1C29.2667 62.7667 29.2 63.4 29.2 64C29.2 64.5333 29.2333 64.9 29.3 65.1Z"/>
</mask>
<path d="M45.7 49.2C45.2333 49.2 44.8667 49.1333 44.6 49C44 48.7333 43.7 48.6 43.7 48.6C43.7 48.5333 44 48.3 44.6 47.9C45.0667 47.6333 45.6 47.5333 46.2 47.6C46.8667 47.6667 47.3333 47.6667 47.6 47.6C49.2 47.2667 51.1333 46.8 53.4 46.2C55.6667 45.6 58.3 44.4 61.3 42.6L65.2 40.3C65.5333 40.1 65.7667 40.1333 65.9 40.4C65.7667 40.4667 65.7 40.6333 65.7 40.9C66.1667 40.9 66.4333 40.7333 66.5 40.4C66.6333 40 66.7667 39.6333 66.9 39.3H67L69.2 37.9C69.5333 37.8333 69.8333 37.8667 70.1 38C70.4333 38.1333 70.7333 38.1 71 37.9C70.8667 37.6333 70.7333 37.4667 70.6 37.4C70.4667 37.2667 70.5333 37.1 70.8 36.9L71.2 36.6C71.7333 36.2667 72.2 36.0333 72.6 35.9C73.0667 35.7 73.4 35.3333 73.6 34.8C74.9333 33.6 76.0667 32.4 77 31.2C77.9333 30 78.4 28.8667 78.4 27.8C78.4 26.6667 77.7667 25.7 76.5 24.9C75.3 24.0333 73.1333 23.4 70 23L69.2 22.9C68.7333 22.8333 68.3 22.7667 67.9 22.7C67.5 22.6333 67.1 22.5 66.7 22.3C66.7667 22.5667 66.6333 22.7 66.3 22.7C65.3667 22.6333 64.4333 22.6 63.5 22.6C62.5667 22.5333 61.6667 22.5 60.8 22.5C59.3333 22.5 57.9667 22.5333 56.7 22.6C55.5 22.6667 54.6333 22.7333 54.1 22.8L50.8 23.2C50.4 23.0667 50 23.1333 49.6 23.4H49.5C49.0333 23.4 48.5667 23.4667 48.1 23.6C47.6333 23.6667 47.1333 23.7667 46.6 23.9C46.3333 23.9667 46.0333 24.0333 45.7 24.1C45.3667 24.1 45.0333 24.1667 44.7 24.3L42.7 24.7C42.2333 25.0333 41.6333 25.2 40.9 25.2H40.8L38.9 25.7H38.8C38.5333 25.7 38.3 25.5667 38.1 25.3C37.9 24.9667 37.7667 24.6667 37.7 24.4C37.6333 24.8 37.5333 25.2333 37.4 25.7C37.2667 26.1667 37.0333 26.4 36.7 26.4L33.9 27.3C33.6333 27.3667 33.3333 27.4 33 27.4C32.6667 27.4 32.3333 27.4 32 27.4C31.6667 27.4 31.4 27.4333 31.2 27.5C31 27.5667 30.8667 27.7333 30.8 28C30.8 28.2 30.7 28.3667 30.5 28.5C30.2333 28.7667 29.9 28.9667 29.5 29.1C29.1 29.1667 28.7333 29.2667 28.4 29.4H28.3C28.1667 29.4 27.9667 29.3333 27.7 29.2C27.5 29.0667 27.3333 29.0333 27.2 29.1C27.1333 29.1667 27.0667 29.3333 27 29.6C26.9333 29.8667 26.8333 30.0333 26.7 30.1V30.2C26.3 30.3333 25.8667 30.5 25.4 30.7C24.9333 30.9 24.5 31.1 24.1 31.3C23.7 31.5 23.2333 31.7333 22.7 32C22.2333 32.2 21.8333 32.3333 21.5 32.4C21.3667 32.4 21.3 32.2667 21.3 32C21.3667 31.7333 21.3333 31.6667 21.2 31.8C20.8 32 20.4 32.3667 20 32.9C19.6 33.4333 19.2333 33.8 18.9 34C18.5667 34.2667 18.2 34.4 17.8 34.4C17.4667 34.4 17.1333 34.5333 16.8 34.8C16.6 35 16.4 35.3333 16.2 35.8C16.0667 36.2 15.9 36.5 15.7 36.7C15.1667 37.2333 14.6333 37.8667 14.1 38.6C14.0333 38.7333 13.9333 38.8667 13.8 39C13.6667 39.1333 13.6 39.3 13.6 39.5H13.5C13.1 40.3 12.9 41.0667 12.9 41.8C12.9 43.2667 13.4333 44.3333 14.5 45C15.6333 45.6667 16.9 46.1667 18.3 46.5C18.5667 46.5667 18.8 46.6667 19 46.8C19.2667 46.9333 19.5333 46.9667 19.8 46.9C20.0667 46.7667 20.3 46.7 20.5 46.7C20.8333 46.7 21.1 46.8333 21.3 47.1L22.8 47.4C23.6 47.6 24 47.8 24 48C24 48.1333 23.8 48.2667 23.4 48.4C23.0667 48.4667 22.7333 48.5 22.4 48.5C21.2 48.5 19.7333 48.2667 18 47.8C16.2667 47.2667 14.7 46.5 13.3 45.5C11.9 44.5 11.1 43.2 10.9 41.6C10.9 41.5333 10.8 41.3667 10.6 41.1C10.4667 40.8333 10.3667 40.6 10.3 40.4C10.1 39.8 10 39.2 10 38.6C10 37.4667 10.2333 36.4 10.7 35.4C11.2333 34.4 11.9333 33.4667 12.8 32.6C13.1333 32.2667 13.4333 32.0333 13.7 31.9C14.0333 31.7667 14.4 31.5667 14.8 31.3C15.2 31.0333 15.4 30.8 15.4 30.6C15.4 30.4 15.6 30.1667 16 29.9C16.5333 29.5667 17.2667 29.1667 18.2 28.7C19.2 28.2333 19.9667 27.8667 20.5 27.6C20.9 27.6 21.2667 27.4333 21.6 27.1C22.9333 26.5 24.3333 25.9667 25.8 25.5C27.2667 24.9667 28.7333 24.4667 30.2 24C30.4667 23.9333 30.7 23.8667 30.9 23.8C31.1 23.7333 31.3 23.7 31.5 23.7C31.7667 23.7 32.0333 23.8 32.3 24C32.3 23.8667 32.2667 23.7667 32.2 23.7C32.2 23.5667 32.2667 23.4667 32.4 23.4C34.0667 22.8667 35.7 22.3667 37.3 21.9C38.9667 21.3667 40.6 21.1 42.2 21.1H42.3C42.4333 21.1 42.5667 21.0667 42.7 21C42.9 20.9333 43.0667 20.9 43.2 20.9H43.3L44 20.8C44.4 21 44.8 20.9333 45.2 20.6C47 20.2667 48.6667 20.0333 50.2 19.9C51.7333 19.7 53.0333 19.6 54.1 19.6H54.5C54.8333 19.6 55.1 19.5667 55.3 19.5H56.3C56.5 19.4333 56.7 19.4333 56.9 19.5C57.1667 19.5 57.3667 19.5 57.5 19.5H57.6C58.4 19.5 59.2333 19.5333 60.1 19.6C61.0333 19.6 61.9667 19.6 62.9 19.6H63C63.2667 19.6 63.4667 19.7 63.6 19.9C63.8 20.0333 64.0333 19.9667 64.3 19.7C66.1 19.7667 67.9 19.9667 69.7 20.3C71.0333 20.5 72.5667 20.9 74.3 21.5C76.1 22.1 77.6667 23.0333 79 24.3C80.3333 25.5 81 27.2 81 29.4C81 30.4667 80.8667 31.4333 80.6 32.3C80.4 33.1 80 33.8333 79.4 34.5C78.8667 35.1667 78.2333 35.8333 77.5 36.5C77.3 36.7 77.1 36.9333 76.9 37.2C76.7 37.4667 76.4667 37.7 76.2 37.9C76.1333 37.9667 76 38.0333 75.8 38.1C75.6667 38.1 75.5333 38.1333 75.4 38.2C75.2667 38.3333 75.1333 38.4333 75 38.5C74.8667 38.5667 74.7 38.6667 74.5 38.8C72.3 40.2667 70.4 41.3667 68.8 42.1C67.2667 42.7667 65.2333 43.5333 62.7 44.4C61.9 44.6667 61.3333 44.8333 61 44.9C60.6667 44.9 60.4 44.9667 60.2 45.1C58.5333 45.5667 56.6333 46.2333 54.5 47.1C52.3667 47.9667 50.5333 48.5333 49 48.8C48.8667 48.8667 48.4333 48.9667 47.7 49.1C47.0333 49.1667 46.3667 49.2 45.7 49.2ZM75.6 79.1C75.5333 79.1 75.3 79.1 74.9 79.1C74.5 79.1 74.2667 79.0667 74.2 79C73.9333 78.8667 73.8333 78.6667 73.9 78.4C73.9667 78.1333 73.8667 78 73.6 78C73.3333 78 73.1667 78.1 73.1 78.3C73.0333 78.5667 72.8333 78.7 72.5 78.7H72.4C72.0667 78.7 71.7667 78.5333 71.5 78.2C71.3 77.8667 71.0667 77.7667 70.8 77.9C70.4 78.1 70.0667 78.2 69.8 78.2C69.3333 78.2 68.9667 78.0333 68.7 77.7C68.4333 77.3667 68.0667 77.0667 67.6 76.8C67.5333 76.8 67.4 76.8333 67.2 76.9C67.0667 76.9667 66.9333 76.9667 66.8 76.9C66.7333 76.8333 66.2 76.5333 65.2 76C64.2 75.5333 63.2 75.0333 62.2 74.5C61.2 73.9667 60.6 73.6333 60.4 73.5C60.2 73.0333 60 72.7667 59.8 72.7C59.6667 72.6333 59.3667 72.6 58.9 72.6C58.6333 72.4 58.2667 72.1667 57.8 71.9C57.4 71.7 57.1333 71.4333 57 71.1C56.1333 70.7667 55.3667 70.3667 54.7 69.9C54.0333 69.4333 53.3333 68.9 52.6 68.3C52.4667 68.1667 52.3 68.0667 52.1 68C51.9 67.9333 51.7333 67.8333 51.6 67.7L48.9 65.7C48.7667 65.3 48.2667 64.8667 47.4 64.4C46.5333 63.8667 45.9333 63.3667 45.6 62.9C45.5333 62.8333 45.5 62.7667 45.5 62.7C45.5 62.3667 45.3333 62.2 45 62.2C44.8 62.2 44.6 62.2 44.4 62.2C44.2 62.2 44.1 62.0667 44.1 61.8C43.9 61.3333 43.4 60.8 42.6 60.2C41.8 59.5333 41.0667 58.8667 40.4 58.2C39.7333 57.5333 39.5 56.9667 39.7 56.5C39.4333 56.4333 39.1667 56.4 38.9 56.4C38.6333 56.4 38.4333 56.3 38.3 56.1C38.0333 55.5667 37.7 55.1333 37.3 54.8C37.1 54.6667 36.9 54.4667 36.7 54.2L36.2 55.2C35.9333 55.6 35.6667 56.0667 35.4 56.6C35.1333 57.1333 34.8333 57.7 34.5 58.3L33.6 60.1C33.5333 60.3 33.4333 60.4 33.3 60.4C33.2333 60.3333 33.1333 60.3 33 60.3C33.1333 60.5667 33.2 60.8 33.2 61C33.2 61.5333 32.9 62.1 32.3 62.7C31.4333 64.7 30.6333 66.6 29.9 68.4C29.1667 70.2 28.6 71.8667 28.2 73.4C28.0667 73.9333 27.8667 74.2 27.6 74.2C27.1333 74.2 26.9 73.7 26.9 72.7C26.9 71.7667 27.2667 70.3 28 68.3L27.9 68.4C27.8333 68.4 27.6 68.4667 27.2 68.6C26.8 68.7333 26.5333 68.7667 26.4 68.7C25.5333 68.7 25.1 68.4 25.1 67.8C25.1 66.2 25.4333 64.5333 26.1 62.8L28.7 56C28.8333 55.8 28.9 55.6 28.9 55.4C28.9667 55.2 29.0333 55 29.1 54.8L29.2 54.7V54.6L29.6 52.5C29.7333 51.9 29.8 51.3667 29.8 50.9C29.8667 50.4333 29.9 49.8667 29.9 49.2C29.9 49 30 48.8667 30.2 48.8C30.2 48.3333 30.2333 47.9 30.3 47.5C30.3667 47.0333 30.4 46.5667 30.4 46.1V45.6C30.3333 45.5333 30.3 45.4 30.3 45.2C30.3 45.0667 30.2667 44.9333 30.2 44.8C30.2 44.6667 30.2 44.5333 30.2 44.4C30.2 44.3333 30.2 44.3 30.2 44.3C30.2667 44.2333 30.3 44.1667 30.3 44.1C30.4333 43.3 30.6667 42.5667 31 41.9C31.4 41.2333 31.8333 41.0667 32.3 41.4C32.4333 41.4667 32.6667 41.8667 33 42.6C33.4 43.3333 33.7333 43.8667 34 44.2C34.2667 44.8667 34.6 45.5 35 46.1C35.4 46.6333 35.7333 47.2333 36 47.9C36.2 48.2333 36.3 48.5 36.3 48.7C36.3 48.8333 36.5333 48.9667 37 49.1C38.9333 45.6333 40.8667 42.3333 42.8 39.2C44.8 36 46.6667 33.5333 48.4 31.8L48.7 31.6L49 31.1C49 31.1 49.0667 31.0667 49.2 31C49.3333 30.9333 49.4333 30.9667 49.5 31.1C49.5 31.1667 49.4333 31.3 49.3 31.5C49.2333 31.7 49.2 31.8333 49.2 31.9C49.4 32.2333 49.6333 32.2667 49.9 32C49.9667 31.8667 49.9667 31.5667 49.9 31.1C49.8333 30.6333 49.8333 30.4 49.9 30.4C50.0333 30.3333 50.1 30.3333 50.1 30.4C50.1667 30.4667 50.2333 30.5 50.3 30.5C50.4333 30.5 50.5 30.4 50.5 30.2C50.5 30 50.5333 29.8667 50.6 29.8C51.3333 29.5333 52 29.4 52.6 29.4C52.9333 29.4 53.4 29.5667 54 29.9C54.6667 30.2333 55 30.7 55 31.3C55 31.6333 54.8333 32.0333 54.5 32.5C54.4333 32.5667 54.3667 32.7 54.3 32.9C54.2333 33.0333 54.1333 33.1667 54 33.3C53.9333 33.3667 53.8667 33.4 53.8 33.4C53.8 33.3333 53.7333 33.3333 53.6 33.4C53.5333 33.4667 53.4333 33.5 53.3 33.5C53.2333 33.4333 53.1333 33.4 53 33.4C52.8667 33.4 52.8333 33.5 52.9 33.7C53.0333 33.9 53.0667 34.0333 53 34.1C52.9333 34.1667 52.8667 34.1667 52.8 34.1C52.7333 34.0333 52.6333 34.0667 52.5 34.2C52.4333 34.2667 52.4667 34.3333 52.6 34.4C52.8 34.4 52.8333 34.4667 52.7 34.6C52.3 35 51.8 35.4333 51.2 35.9C50.6667 36.3 50.1333 36.7 49.6 37.1C49.5333 37.1667 49.4667 37.1667 49.4 37.1C49.3333 36.9667 49.2667 36.9333 49.2 37L48.5 38C47.8333 38.6667 47.1667 39.3667 46.5 40.1C45.8333 40.8333 45.1333 41.6667 44.4 42.6C44.2 43 43.9667 43.3667 43.7 43.7C43.4333 44.0333 43.0667 44.1667 42.6 44.1C42.6 44.1667 42.6667 44.2667 42.8 44.4C42.9333 44.4667 42.9333 44.6 42.8 44.8C41.3333 46.8 39.9667 48.8667 38.7 51L40.8 53.6C41 53.8667 41.1 54.1667 41.1 54.5C41.1 54.7667 41.1667 54.9333 41.3 55C41.4333 55 41.5333 54.9667 41.6 54.9C41.7333 54.8333 41.8333 54.8 41.9 54.8C42.1 54.8 42.2667 54.9667 42.4 55.3C42.6 55.5667 42.8 55.8 43 56C43.2667 56.2667 43.5333 56.5333 43.8 56.8C44.1333 57.0667 44.4667 57.3667 44.8 57.7V57.8C45.0667 58 45.5 58.3667 46.1 58.9C46.7 59.4333 47.2667 59.9667 47.8 60.5C48.3333 60.9667 48.6333 61.3333 48.7 61.6C48.8333 61.8667 49.0333 62.0333 49.3 62.1C49.5667 62.1667 49.8 62.2667 50 62.4C50.5333 62.8 51.0667 63.2 51.6 63.6C52.2 64 52.7667 64.4333 53.3 64.9C53.5 65.0333 53.5667 65.1667 53.5 65.3C53.5 65.4333 53.5333 65.5667 53.6 65.7C53.7333 65.7667 53.9667 65.8667 54.3 66C54.7 66.0667 55 66.1667 55.2 66.3C56.7333 67.3 58.2667 68.2667 59.8 69.2C61.3333 70.2 62.9333 71.1333 64.6 72C66.3333 72.8667 68.1 73.6333 69.9 74.3C71.7 74.9667 73.6 75.3 75.6 75.3C77.2 75.3 78.7333 75 80.2 74.4C81.7333 73.8 82.5 72.7 82.5 71.1C82.5 70.5667 82.4 70 82.2 69.4C82.1333 69.0667 82 68.7 81.8 68.3C81.6667 67.9 81.4333 67.6 81.1 67.4C80.9 67 80.5333 66.7333 80 66.6C79.6667 66.2667 79.3667 65.9333 79.1 65.6C78.8333 65.2 78.4333 65.0333 77.9 65.1C77.7 64.9 77.6 64.7 77.6 64.5C77.6 64.2333 77.7 64.0333 77.9 63.9C78.1667 63.7 78.4667 63.6667 78.8 63.8C79.2667 64.0667 79.6333 64.4333 79.9 64.9C80.2333 65.3 80.6667 65.5333 81.2 65.6L81.7 66.1C81.9 66.4333 82.1 66.7 82.3 66.9C82.5667 67.1 82.8 67.3667 83 67.7C83.2 67.9667 83.4 68.3333 83.6 68.8C83.8667 69.3333 84.0333 69.7667 84.1 70.1C84.2333 70.3667 84.2667 70.6333 84.2 70.9C84.2 71.1667 84.3 71.4667 84.5 71.8C84.6333 73.8667 83.9667 75.5333 82.5 76.8C81.0333 78.1333 79.3333 78.8667 77.4 79C77.2 78.8667 77 78.7667 76.8 78.7C76.6667 78.6333 76.5333 78.6 76.4 78.6C76.2 78.6 75.9333 78.7667 75.6 79.1ZM29.3 65.1C29.4333 65.1667 29.5 65.1667 29.5 65.1C29.5667 64.9667 29.6 64.9 29.6 64.9C29.7333 64.7 29.8 64.5 29.8 64.3C29.8 64.0333 29.8333 63.8 29.9 63.6C31.1 60.6 32.6333 57.3333 34.5 53.8C34.6333 53.5333 34.7667 53.4667 34.9 53.6C35.1 53.6667 35.2333 53.6333 35.3 53.5C35.4333 53.3667 35.4667 53.2 35.4 53C35.4 52.8 35.4 52.6333 35.4 52.5C35.3333 52.3667 35.2333 52.2667 35.1 52.2C34.9667 52.1333 34.8667 52.0333 34.8 51.9C34.5333 51.1667 34.1667 50.7 33.7 50.5C33.3 50.2333 33 49.8333 32.8 49.3C32.5333 48.7 32.2667 48.2667 32 48C31.8 47.6667 31.5333 47.2667 31.2 46.8L30.9 50.2C30.8333 50.8667 30.7333 51.6333 30.6 52.5C30.5333 53.3667 30.3667 54.1667 30.1 54.9C30.0333 55.1 30 55.4 30 55.8V56.9C30 57.0333 29.9667 57.2 29.9 57.4C29.9 57.6 29.9 57.8 29.9 58L29.7 60C29.6333 60.6667 29.5333 61.3667 29.4 62.1C29.2667 62.7667 29.2 63.4 29.2 64C29.2 64.5333 29.2333 64.9 29.3 65.1Z" fill="white"/>
<path d="M45.7 49.2C45.2333 49.2 44.8667 49.1333 44.6 49C44 48.7333 43.7 48.6 43.7 48.6C43.7 48.5333 44 48.3 44.6 47.9C45.0667 47.6333 45.6 47.5333 46.2 47.6C46.8667 47.6667 47.3333 47.6667 47.6 47.6C49.2 47.2667 51.1333 46.8 53.4 46.2C55.6667 45.6 58.3 44.4 61.3 42.6L65.2 40.3C65.5333 40.1 65.7667 40.1333 65.9 40.4C65.7667 40.4667 65.7 40.6333 65.7 40.9C66.1667 40.9 66.4333 40.7333 66.5 40.4C66.6333 40 66.7667 39.6333 66.9 39.3H67L69.2 37.9C69.5333 37.8333 69.8333 37.8667 70.1 38C70.4333 38.1333 70.7333 38.1 71 37.9C70.8667 37.6333 70.7333 37.4667 70.6 37.4C70.4667 37.2667 70.5333 37.1 70.8 36.9L71.2 36.6C71.7333 36.2667 72.2 36.0333 72.6 35.9C73.0667 35.7 73.4 35.3333 73.6 34.8C74.9333 33.6 76.0667 32.4 77 31.2C77.9333 30 78.4 28.8667 78.4 27.8C78.4 26.6667 77.7667 25.7 76.5 24.9C75.3 24.0333 73.1333 23.4 70 23L69.2 22.9C68.7333 22.8333 68.3 22.7667 67.9 22.7C67.5 22.6333 67.1 22.5 66.7 22.3C66.7667 22.5667 66.6333 22.7 66.3 22.7C65.3667 22.6333 64.4333 22.6 63.5 22.6C62.5667 22.5333 61.6667 22.5 60.8 22.5C59.3333 22.5 57.9667 22.5333 56.7 22.6C55.5 22.6667 54.6333 22.7333 54.1 22.8L50.8 23.2C50.4 23.0667 50 23.1333 49.6 23.4H49.5C49.0333 23.4 48.5667 23.4667 48.1 23.6C47.6333 23.6667 47.1333 23.7667 46.6 23.9C46.3333 23.9667 46.0333 24.0333 45.7 24.1C45.3667 24.1 45.0333 24.1667 44.7 24.3L42.7 24.7C42.2333 25.0333 41.6333 25.2 40.9 25.2H40.8L38.9 25.7H38.8C38.5333 25.7 38.3 25.5667 38.1 25.3C37.9 24.9667 37.7667 24.6667 37.7 24.4C37.6333 24.8 37.5333 25.2333 37.4 25.7C37.2667 26.1667 37.0333 26.4 36.7 26.4L33.9 27.3C33.6333 27.3667 33.3333 27.4 33 27.4C32.6667 27.4 32.3333 27.4 32 27.4C31.6667 27.4 31.4 27.4333 31.2 27.5C31 27.5667 30.8667 27.7333 30.8 28C30.8 28.2 30.7 28.3667 30.5 28.5C30.2333 28.7667 29.9 28.9667 29.5 29.1C29.1 29.1667 28.7333 29.2667 28.4 29.4H28.3C28.1667 29.4 27.9667 29.3333 27.7 29.2C27.5 29.0667 27.3333 29.0333 27.2 29.1C27.1333 29.1667 27.0667 29.3333 27 29.6C26.9333 29.8667 26.8333 30.0333 26.7 30.1V30.2C26.3 30.3333 25.8667 30.5 25.4 30.7C24.9333 30.9 24.5 31.1 24.1 31.3C23.7 31.5 23.2333 31.7333 22.7 32C22.2333 32.2 21.8333 32.3333 21.5 32.4C21.3667 32.4 21.3 32.2667 21.3 32C21.3667 31.7333 21.3333 31.6667 21.2 31.8C20.8 32 20.4 32.3667 20 32.9C19.6 33.4333 19.2333 33.8 18.9 34C18.5667 34.2667 18.2 34.4 17.8 34.4C17.4667 34.4 17.1333 34.5333 16.8 34.8C16.6 35 16.4 35.3333 16.2 35.8C16.0667 36.2 15.9 36.5 15.7 36.7C15.1667 37.2333 14.6333 37.8667 14.1 38.6C14.0333 38.7333 13.9333 38.8667 13.8 39C13.6667 39.1333 13.6 39.3 13.6 39.5H13.5C13.1 40.3 12.9 41.0667 12.9 41.8C12.9 43.2667 13.4333 44.3333 14.5 45C15.6333 45.6667 16.9 46.1667 18.3 46.5C18.5667 46.5667 18.8 46.6667 19 46.8C19.2667 46.9333 19.5333 46.9667 19.8 46.9C20.0667 46.7667 20.3 46.7 20.5 46.7C20.8333 46.7 21.1 46.8333 21.3 47.1L22.8 47.4C23.6 47.6 24 47.8 24 48C24 48.1333 23.8 48.2667 23.4 48.4C23.0667 48.4667 22.7333 48.5 22.4 48.5C21.2 48.5 19.7333 48.2667 18 47.8C16.2667 47.2667 14.7 46.5 13.3 45.5C11.9 44.5 11.1 43.2 10.9 41.6C10.9 41.5333 10.8 41.3667 10.6 41.1C10.4667 40.8333 10.3667 40.6 10.3 40.4C10.1 39.8 10 39.2 10 38.6C10 37.4667 10.2333 36.4 10.7 35.4C11.2333 34.4 11.9333 33.4667 12.8 32.6C13.1333 32.2667 13.4333 32.0333 13.7 31.9C14.0333 31.7667 14.4 31.5667 14.8 31.3C15.2 31.0333 15.4 30.8 15.4 30.6C15.4 30.4 15.6 30.1667 16 29.9C16.5333 29.5667 17.2667 29.1667 18.2 28.7C19.2 28.2333 19.9667 27.8667 20.5 27.6C20.9 27.6 21.2667 27.4333 21.6 27.1C22.9333 26.5 24.3333 25.9667 25.8 25.5C27.2667 24.9667 28.7333 24.4667 30.2 24C30.4667 23.9333 30.7 23.8667 30.9 23.8C31.1 23.7333 31.3 23.7 31.5 23.7C31.7667 23.7 32.0333 23.8 32.3 24C32.3 23.8667 32.2667 23.7667 32.2 23.7C32.2 23.5667 32.2667 23.4667 32.4 23.4C34.0667 22.8667 35.7 22.3667 37.3 21.9C38.9667 21.3667 40.6 21.1 42.2 21.1H42.3C42.4333 21.1 42.5667 21.0667 42.7 21C42.9 20.9333 43.0667 20.9 43.2 20.9H43.3L44 20.8C44.4 21 44.8 20.9333 45.2 20.6C47 20.2667 48.6667 20.0333 50.2 19.9C51.7333 19.7 53.0333 19.6 54.1 19.6H54.5C54.8333 19.6 55.1 19.5667 55.3 19.5H56.3C56.5 19.4333 56.7 19.4333 56.9 19.5C57.1667 19.5 57.3667 19.5 57.5 19.5H57.6C58.4 19.5 59.2333 19.5333 60.1 19.6C61.0333 19.6 61.9667 19.6 62.9 19.6H63C63.2667 19.6 63.4667 19.7 63.6 19.9C63.8 20.0333 64.0333 19.9667 64.3 19.7C66.1 19.7667 67.9 19.9667 69.7 20.3C71.0333 20.5 72.5667 20.9 74.3 21.5C76.1 22.1 77.6667 23.0333 79 24.3C80.3333 25.5 81 27.2 81 29.4C81 30.4667 80.8667 31.4333 80.6 32.3C80.4 33.1 80 33.8333 79.4 34.5C78.8667 35.1667 78.2333 35.8333 77.5 36.5C77.3 36.7 77.1 36.9333 76.9 37.2C76.7 37.4667 76.4667 37.7 76.2 37.9C76.1333 37.9667 76 38.0333 75.8 38.1C75.6667 38.1 75.5333 38.1333 75.4 38.2C75.2667 38.3333 75.1333 38.4333 75 38.5C74.8667 38.5667 74.7 38.6667 74.5 38.8C72.3 40.2667 70.4 41.3667 68.8 42.1C67.2667 42.7667 65.2333 43.5333 62.7 44.4C61.9 44.6667 61.3333 44.8333 61 44.9C60.6667 44.9 60.4 44.9667 60.2 45.1C58.5333 45.5667 56.6333 46.2333 54.5 47.1C52.3667 47.9667 50.5333 48.5333 49 48.8C48.8667 48.8667 48.4333 48.9667 47.7 49.1C47.0333 49.1667 46.3667 49.2 45.7 49.2ZM75.6 79.1C75.5333 79.1 75.3 79.1 74.9 79.1C74.5 79.1 74.2667 79.0667 74.2 79C73.9333 78.8667 73.8333 78.6667 73.9 78.4C73.9667 78.1333 73.8667 78 73.6 78C73.3333 78 73.1667 78.1 73.1 78.3C73.0333 78.5667 72.8333 78.7 72.5 78.7H72.4C72.0667 78.7 71.7667 78.5333 71.5 78.2C71.3 77.8667 71.0667 77.7667 70.8 77.9C70.4 78.1 70.0667 78.2 69.8 78.2C69.3333 78.2 68.9667 78.0333 68.7 77.7C68.4333 77.3667 68.0667 77.0667 67.6 76.8C67.5333 76.8 67.4 76.8333 67.2 76.9C67.0667 76.9667 66.9333 76.9667 66.8 76.9C66.7333 76.8333 66.2 76.5333 65.2 76C64.2 75.5333 63.2 75.0333 62.2 74.5C61.2 73.9667 60.6 73.6333 60.4 73.5C60.2 73.0333 60 72.7667 59.8 72.7C59.6667 72.6333 59.3667 72.6 58.9 72.6C58.6333 72.4 58.2667 72.1667 57.8 71.9C57.4 71.7 57.1333 71.4333 57 71.1C56.1333 70.7667 55.3667 70.3667 54.7 69.9C54.0333 69.4333 53.3333 68.9 52.6 68.3C52.4667 68.1667 52.3 68.0667 52.1 68C51.9 67.9333 51.7333 67.8333 51.6 67.7L48.9 65.7C48.7667 65.3 48.2667 64.8667 47.4 64.4C46.5333 63.8667 45.9333 63.3667 45.6 62.9C45.5333 62.8333 45.5 62.7667 45.5 62.7C45.5 62.3667 45.3333 62.2 45 62.2C44.8 62.2 44.6 62.2 44.4 62.2C44.2 62.2 44.1 62.0667 44.1 61.8C43.9 61.3333 43.4 60.8 42.6 60.2C41.8 59.5333 41.0667 58.8667 40.4 58.2C39.7333 57.5333 39.5 56.9667 39.7 56.5C39.4333 56.4333 39.1667 56.4 38.9 56.4C38.6333 56.4 38.4333 56.3 38.3 56.1C38.0333 55.5667 37.7 55.1333 37.3 54.8C37.1 54.6667 36.9 54.4667 36.7 54.2L36.2 55.2C35.9333 55.6 35.6667 56.0667 35.4 56.6C35.1333 57.1333 34.8333 57.7 34.5 58.3L33.6 60.1C33.5333 60.3 33.4333 60.4 33.3 60.4C33.2333 60.3333 33.1333 60.3 33 60.3C33.1333 60.5667 33.2 60.8 33.2 61C33.2 61.5333 32.9 62.1 32.3 62.7C31.4333 64.7 30.6333 66.6 29.9 68.4C29.1667 70.2 28.6 71.8667 28.2 73.4C28.0667 73.9333 27.8667 74.2 27.6 74.2C27.1333 74.2 26.9 73.7 26.9 72.7C26.9 71.7667 27.2667 70.3 28 68.3L27.9 68.4C27.8333 68.4 27.6 68.4667 27.2 68.6C26.8 68.7333 26.5333 68.7667 26.4 68.7C25.5333 68.7 25.1 68.4 25.1 67.8C25.1 66.2 25.4333 64.5333 26.1 62.8L28.7 56C28.8333 55.8 28.9 55.6 28.9 55.4C28.9667 55.2 29.0333 55 29.1 54.8L29.2 54.7V54.6L29.6 52.5C29.7333 51.9 29.8 51.3667 29.8 50.9C29.8667 50.4333 29.9 49.8667 29.9 49.2C29.9 49 30 48.8667 30.2 48.8C30.2 48.3333 30.2333 47.9 30.3 47.5C30.3667 47.0333 30.4 46.5667 30.4 46.1V45.6C30.3333 45.5333 30.3 45.4 30.3 45.2C30.3 45.0667 30.2667 44.9333 30.2 44.8C30.2 44.6667 30.2 44.5333 30.2 44.4C30.2 44.3333 30.2 44.3 30.2 44.3C30.2667 44.2333 30.3 44.1667 30.3 44.1C30.4333 43.3 30.6667 42.5667 31 41.9C31.4 41.2333 31.8333 41.0667 32.3 41.4C32.4333 41.4667 32.6667 41.8667 33 42.6C33.4 43.3333 33.7333 43.8667 34 44.2C34.2667 44.8667 34.6 45.5 35 46.1C35.4 46.6333 35.7333 47.2333 36 47.9C36.2 48.2333 36.3 48.5 36.3 48.7C36.3 48.8333 36.5333 48.9667 37 49.1C38.9333 45.6333 40.8667 42.3333 42.8 39.2C44.8 36 46.6667 33.5333 48.4 31.8L48.7 31.6L49 31.1C49 31.1 49.0667 31.0667 49.2 31C49.3333 30.9333 49.4333 30.9667 49.5 31.1C49.5 31.1667 49.4333 31.3 49.3 31.5C49.2333 31.7 49.2 31.8333 49.2 31.9C49.4 32.2333 49.6333 32.2667 49.9 32C49.9667 31.8667 49.9667 31.5667 49.9 31.1C49.8333 30.6333 49.8333 30.4 49.9 30.4C50.0333 30.3333 50.1 30.3333 50.1 30.4C50.1667 30.4667 50.2333 30.5 50.3 30.5C50.4333 30.5 50.5 30.4 50.5 30.2C50.5 30 50.5333 29.8667 50.6 29.8C51.3333 29.5333 52 29.4 52.6 29.4C52.9333 29.4 53.4 29.5667 54 29.9C54.6667 30.2333 55 30.7 55 31.3C55 31.6333 54.8333 32.0333 54.5 32.5C54.4333 32.5667 54.3667 32.7 54.3 32.9C54.2333 33.0333 54.1333 33.1667 54 33.3C53.9333 33.3667 53.8667 33.4 53.8 33.4C53.8 33.3333 53.7333 33.3333 53.6 33.4C53.5333 33.4667 53.4333 33.5 53.3 33.5C53.2333 33.4333 53.1333 33.4 53 33.4C52.8667 33.4 52.8333 33.5 52.9 33.7C53.0333 33.9 53.0667 34.0333 53 34.1C52.9333 34.1667 52.8667 34.1667 52.8 34.1C52.7333 34.0333 52.6333 34.0667 52.5 34.2C52.4333 34.2667 52.4667 34.3333 52.6 34.4C52.8 34.4 52.8333 34.4667 52.7 34.6C52.3 35 51.8 35.4333 51.2 35.9C50.6667 36.3 50.1333 36.7 49.6 37.1C49.5333 37.1667 49.4667 37.1667 49.4 37.1C49.3333 36.9667 49.2667 36.9333 49.2 37L48.5 38C47.8333 38.6667 47.1667 39.3667 46.5 40.1C45.8333 40.8333 45.1333 41.6667 44.4 42.6C44.2 43 43.9667 43.3667 43.7 43.7C43.4333 44.0333 43.0667 44.1667 42.6 44.1C42.6 44.1667 42.6667 44.2667 42.8 44.4C42.9333 44.4667 42.9333 44.6 42.8 44.8C41.3333 46.8 39.9667 48.8667 38.7 51L40.8 53.6C41 53.8667 41.1 54.1667 41.1 54.5C41.1 54.7667 41.1667 54.9333 41.3 55C41.4333 55 41.5333 54.9667 41.6 54.9C41.7333 54.8333 41.8333 54.8 41.9 54.8C42.1 54.8 42.2667 54.9667 42.4 55.3C42.6 55.5667 42.8 55.8 43 56C43.2667 56.2667 43.5333 56.5333 43.8 56.8C44.1333 57.0667 44.4667 57.3667 44.8 57.7V57.8C45.0667 58 45.5 58.3667 46.1 58.9C46.7 59.4333 47.2667 59.9667 47.8 60.5C48.3333 60.9667 48.6333 61.3333 48.7 61.6C48.8333 61.8667 49.0333 62.0333 49.3 62.1C49.5667 62.1667 49.8 62.2667 50 62.4C50.5333 62.8 51.0667 63.2 51.6 63.6C52.2 64 52.7667 64.4333 53.3 64.9C53.5 65.0333 53.5667 65.1667 53.5 65.3C53.5 65.4333 53.5333 65.5667 53.6 65.7C53.7333 65.7667 53.9667 65.8667 54.3 66C54.7 66.0667 55 66.1667 55.2 66.3C56.7333 67.3 58.2667 68.2667 59.8 69.2C61.3333 70.2 62.9333 71.1333 64.6 72C66.3333 72.8667 68.1 73.6333 69.9 74.3C71.7 74.9667 73.6 75.3 75.6 75.3C77.2 75.3 78.7333 75 80.2 74.4C81.7333 73.8 82.5 72.7 82.5 71.1C82.5 70.5667 82.4 70 82.2 69.4C82.1333 69.0667 82 68.7 81.8 68.3C81.6667 67.9 81.4333 67.6 81.1 67.4C80.9 67 80.5333 66.7333 80 66.6C79.6667 66.2667 79.3667 65.9333 79.1 65.6C78.8333 65.2 78.4333 65.0333 77.9 65.1C77.7 64.9 77.6 64.7 77.6 64.5C77.6 64.2333 77.7 64.0333 77.9 63.9C78.1667 63.7 78.4667 63.6667 78.8 63.8C79.2667 64.0667 79.6333 64.4333 79.9 64.9C80.2333 65.3 80.6667 65.5333 81.2 65.6L81.7 66.1C81.9 66.4333 82.1 66.7 82.3 66.9C82.5667 67.1 82.8 67.3667 83 67.7C83.2 67.9667 83.4 68.3333 83.6 68.8C83.8667 69.3333 84.0333 69.7667 84.1 70.1C84.2333 70.3667 84.2667 70.6333 84.2 70.9C84.2 71.1667 84.3 71.4667 84.5 71.8C84.6333 73.8667 83.9667 75.5333 82.5 76.8C81.0333 78.1333 79.3333 78.8667 77.4 79C77.2 78.8667 77 78.7667 76.8 78.7C76.6667 78.6333 76.5333 78.6 76.4 78.6C76.2 78.6 75.9333 78.7667 75.6 79.1ZM29.3 65.1C29.4333 65.1667 29.5 65.1667 29.5 65.1C29.5667 64.9667 29.6 64.9 29.6 64.9C29.7333 64.7 29.8 64.5 29.8 64.3C29.8 64.0333 29.8333 63.8 29.9 63.6C31.1 60.6 32.6333 57.3333 34.5 53.8C34.6333 53.5333 34.7667 53.4667 34.9 53.6C35.1 53.6667 35.2333 53.6333 35.3 53.5C35.4333 53.3667 35.4667 53.2 35.4 53C35.4 52.8 35.4 52.6333 35.4 52.5C35.3333 52.3667 35.2333 52.2667 35.1 52.2C34.9667 52.1333 34.8667 52.0333 34.8 51.9C34.5333 51.1667 34.1667 50.7 33.7 50.5C33.3 50.2333 33 49.8333 32.8 49.3C32.5333 48.7 32.2667 48.2667 32 48C31.8 47.6667 31.5333 47.2667 31.2 46.8L30.9 50.2C30.8333 50.8667 30.7333 51.6333 30.6 52.5C30.5333 53.3667 30.3667 54.1667 30.1 54.9C30.0333 55.1 30 55.4 30 55.8V56.9C30 57.0333 29.9667 57.2 29.9 57.4C29.9 57.6 29.9 57.8 29.9 58L29.7 60C29.6333 60.6667 29.5333 61.3667 29.4 62.1C29.2667 62.7667 29.2 63.4 29.2 64C29.2 64.5333 29.2333 64.9 29.3 65.1Z" stroke="white" stroke-width="4" mask="url(#path-2-outside-1_6_2)"/>
</svg>
